<?xml version="1.0" encoding="utf-8"?>
<!-- Svg Vector Icons : http://www.onlinewebfonts.com/icon -->
<!DOCTYPE svg PUBLIC "-//W3C//DTD SVG 1.1//EN" "http://www.w3.org/Graphics/SVG/1.1/DTD/svg11.dtd">
<svg version="1.1" xmlns="http://www.w3.org/2000/svg" xmlns:xlink="http://www.w3.org/1999/xlink" x="0px" y="0px" viewBox="0 0 1000 1000" enable-background="new 0 0 1000 1000" xml:space="preserve">
<metadata> Svg Vector Icons : http://www.onlinewebfonts.com/icon </metadata>
<g><g transform="translate(0.000000,511.000000) scale(0.100000,-0.100000)"><path d="M5775.9,3828.6c-843.3-47.1-1468.9-374.6-1806.3-945.3l-96.1-160.8l-105.9,45.1c-347.1,153-808,143.2-1145.3-25.5c-557-280.4-935.5-900.2-935.5-1531.7v-172.6l-121.6-47.1C935.7,753.5,408.1,163.2,206.1-531.1C23.7-1158.6,76.7-1794.1,363-2374.6c286.3-578.5,762.9-994.3,1355.2-1180.6l174.5-54.9l2857.5-5.9c2828-3.9,2861.4-3.9,3059.4,35.3c870.8,178.5,1602.3,855.1,1925.9,1780.8c384.4,1108.1,80.4,2377-759,3153.6c-147.1,135.3-415.8,323.6-564.8,396.2l-90.2,45.1l-23.5,174.5C8172.5,2950,7486,3642.3,6481.9,3801.2C6234.8,3838.5,6074,3846.3,5775.9,3828.6z M6629,3461.9c327.5-82.4,541.3-186.3,776.6-374.6c325.6-258.9,555-747.2,590.3-1245.4c5.9-96.1,19.6-196.1,27.4-221.6c11.8-29.4,64.7-66.7,164.7-111.8c466.8-211.8,876.7-609.9,1112-1078.7c96.1-188.3,184.3-445.2,235.3-682.5c60.8-288.3,60.8-837.4,0-1125.7c-139.2-649.1-464.8-1178.7-945.3-1537.6c-147.1-109.8-504-278.5-706-335.4l-166.7-45.1H4824.7c-3249.7,0-2967.3-11.8-3312.4,149C661.1-2749.2,225.7-1686.2,490.5-650.7C665,31.8,1184.8,579,1816.3,743.7c186.3,49,188.3,51,192.2,423.6c5.9,366.7,25.5,460.9,154.9,723.7c92.2,186.3,305.9,423.6,468.7,517.8c366.7,211.8,817.8,209.8,1172.8-9.8c113.7-70.6,196.1-80.4,251-29.4c21.6,17.6,60.8,94.1,90.2,168.7c190.2,482.5,602.1,804.1,1182.6,919.8c278.5,56.9,290.2,56.9,731.5,51C6393.7,3505.1,6491.7,3497.2,6629,3461.9z"/><path d="M5758.3,1938.1c-76.5-15.7-188.3-51-251-76.5c-270.6-109.8-319.7-153-1423.8-1253.2C3497,23.9,2977.3-505.6,2928.2-570.3c-119.6-158.8-231.4-394.2-272.6-572.7c-47.1-213.8-29.4-533.4,39.2-729.5c127.5-360.9,351-613.9,688.4-776.6c441.3-213.8,892.3-190.2,1339.5,70.6c80.4,47.1,415.8,368.7,1196.3,1145.3C6515.3-840.9,7042.8-303.6,7089.9-240.8c323.6,425.6,374.6,992.4,133.4,1482.7c-98.1,200-349.1,455-545.2,555C6381.9,1949.8,6038.7,2000.8,5758.3,1938.1z M6258.3,1628.2c245.1-53,462.8-198.1,615.8-411.9c125.5-176.5,170.6-313.8,182.4-543.3c9.8-227.5-15.7-358.9-105.9-549.1c-62.8-133.3-115.7-190.2-582.5-660.9l-513.8-513.8l-745.2,745.3l-745.3,747.2l519.7,513.8c453.1,449.1,537.4,523.6,653.1,580.5C5770,1649.8,6013.2,1679.2,6258.3,1628.2z M5148.3-1756.8c-270.6-270.6-533.4-519.7-584.4-553.1c-305.9-196.1-737.4-223.6-1049.2-66.7c-147.1,74.5-286.3,194.2-382.4,329.5c-133.4,186.3-174.6,304-186.3,535.4c-9.8,239.3,15.7,374.6,107.9,564.8c62.8,125.5,127.5,198.1,582.5,657L4148.1,224l745.3-745.3l745.3-745.2L5148.3-1756.8z"/></g></g>
</svg>