<svg id="Capa_1" enable-background="new 0 0 512 512" height="512" viewBox="0 0 512 512" width="512" xmlns="http://www.w3.org/2000/svg"><g><path d="m101.721 118.745h103.538v101.379h-103.538z" fill="#a2ddfd" transform="matrix(.707 -.707 .707 .707 -74.852 158.16)"/><path d="m130.162 24.839-121.267 121.267c-11.86 11.86-11.86 31.089 0 42.949l5.17 5.17c11.86 11.86 31.089 11.86 42.949 0l121.267-121.267c11.86-11.86 11.86-31.089 0-42.949l-5.17-5.17c-11.86-11.86-31.089-11.86-42.949 0z" fill="#cde9fa"/><path d="m435.166 346.97-104.14 104.141c-19.481 19.481-51.066 19.481-70.547 0l-141.015-141.015 174.687-174.687 141.015 141.015c19.481 19.48 19.481 51.065 0 70.546z" fill="#cde9fa"/><path d="m229.499 200.061-110.035 110.035 141.015 141.015c19.481 19.481 51.066 19.481 70.547 0l15.464-15.464c-114.383-37.316-136.744-140.142-116.991-235.586z" fill="#a2ddfd"/><path d="m159.041 174.986c-30.523 30.523-76.663 82.937-92.872 103.375-13.47 16.985-10.622 41.675 6.365 55.145 16.986 13.47 41.68 10.606 55.145-6.364 12.858-16.213 56.696-66.468 86.874-96.645 30.177-30.177 80.432-74.015 96.645-86.874 16.98-13.455 19.834-38.159 6.364-55.145s-38.16-19.835-55.145-6.365c-20.439 16.21-72.853 62.349-103.376 92.873z" fill="#7ca1dc"/><path d="m181.253 153.564c-8.059 7.56-15.643 14.853-22.211 21.421-30.523 30.523-76.663 82.937-92.872 103.375-13.47 16.985-10.622 41.675 6.365 55.145s41.68 10.606 55.145-6.364c9.478-11.951 35.79-42.399 61.055-69.668-17.302-21.184-26.194-70.48-7.482-103.909z" fill="#5a8bd5"/><path d="m497.677 496.056h-54.212c-9.879 0-19.353-3.924-26.338-10.91l-32.076-32.076 52.075-52.075 70.659 70.659c9.004 9.005 2.627 24.402-10.108 24.402z" fill="#7ca1dc"/><path d="m383.803 423.082h73.645v26.974h-73.645z" fill="#5a8bd5" transform="matrix(.707 -.707 .707 .707 -185.503 425.295)"/><g fill="#7ca1dc"><path d="m296.944 417.055c-1.919 0-3.839-.732-5.304-2.197-2.929-2.929-2.929-7.678 0-10.606l26.852-26.852c2.93-2.929 7.678-2.929 10.607 0s2.929 7.678 0 10.606l-26.852 26.852c-1.464 1.464-3.384 2.197-5.303 2.197z"/><path d="m265.423 385.534c-1.919 0-3.839-.732-5.304-2.197-2.929-2.929-2.929-7.678 0-10.606l26.852-26.852c2.93-2.929 7.678-2.929 10.607 0s2.929 7.678 0 10.607l-26.852 26.852c-1.464 1.463-3.384 2.196-5.303 2.196z"/></g><g><g><ellipse cx="222.294" cy="354.946" fill="#fff" rx="30.45" ry="24.249" transform="matrix(.707 -.707 .707 .707 -185.877 261.149)"/><ellipse cx="339.002" cy="238.238" fill="#fff" rx="30.45" ry="24.249" transform="matrix(.707 -.707 .707 .707 -69.168 309.491)"/><ellipse cx="267.473" cy="283.418" fill="#4e5660" rx="16.164" ry="18.087" transform="matrix(.707 -.707 .707 .707 -122.066 272.148)"/></g><g fill="#4e5660"><path d="m205.202 338.155c-1.919 0-3.839-.732-5.304-2.197l-8.352-8.352c-2.929-2.929-2.929-7.678 0-10.606 2.93-2.929 7.678-2.929 10.607 0l8.352 8.352c2.929 2.929 2.929 7.678 0 10.606-1.464 1.465-3.384 2.197-5.303 2.197z"/><path d="m314.711 228.646c-1.919 0-3.839-.732-5.304-2.197l-8.352-8.352c-2.929-2.929-2.929-7.678 0-10.607 2.93-2.929 7.678-2.929 10.607 0l8.352 8.352c2.929 2.929 2.929 7.678 0 10.606-1.464 1.466-3.384 2.198-5.303 2.198z"/></g></g><path d="m423.555 358.581-80.918 80.919 16.357 16.357c6.426 6.426 16.844 6.426 23.27 0l57.649-57.649c6.426-6.426 6.426-16.844 0-23.27z" fill="#a2ddfd"/></g></svg>